<?xml version="1.0" encoding="UTF-8" standalone="no"?>
<!-- Created with Inkscape (http://www.inkscape.org/) -->

<svg
   version="1.1"
   id="svg9"
   width="416.41641"
   height="416.41641"
   viewBox="0 0 416.41641 416.41641"
   sodipodiDocname="404.svg"
   inkscapeVersion="1.1.2 (b8e25be833, 2022-02-05)"
   xmlnsInkscape="http://www.inkscape.org/namespaces/inkscape"
   xmlnsSodipodi="http://sodipodi.sourceforge.net/DTD/sodipodi-0.dtd"
   xmlns="http://www.w3.org/2000/svg"
   xmlnsSvg="http://www.w3.org/2000/svg">
  <defs
     id="defs13" />
  <sodipodiNamedview
     id="namedview11"
     pagecolor="#ffffff"
     bordercolor="#666666"
     borderopacity="1.0"
     inkscapePageshadow="2"
     inkscapePageopacity="0.0"
     inkscapePagecheckerboard="0"
     showgrid="false"
     inkscapeZoom="1.1942822"
     inkscapeCx="170.8139"
     inkscapeCy="181.69909"
     inkscapeWindowWidth="1920"
     inkscapeWindowHeight="1017"
     inkscapeWindowX="-8"
     inkscapeWindowY="-8"
     inkscapeWindowMaximized="1"
     inkscapeCurrentLayer="layer1" />
  <g
     inkscapeGroupmode="layer"
     inkscapeLabel="Image"
     id="g15"
     style="display:inline;opacity:0.60559" />
  <g
     inkscapeGroupmode="layer"
     id="layer1"
     inkscapeLabel="Image 1"
     style="display:inline">
    <path
       style="display:inline;opacity:0.60559;fill:#000000;stroke-width:0.32032"
       d="m 209.74773,276.6162 c -0.35235,-0.0857 -1.64965,-0.38885 -2.88288,-0.6736 -4.24717,-0.98066 -9.35498,-3.57141 -12.11313,-6.14396 l -0.90191,-0.84122 -58.28244,-0.0716 c -41.87338,-0.0514 -58.468999,-0.17141 -58.945034,-0.42618 -1.655469,-0.88598 -1.569303,3.93221 -1.569303,-87.75048 0,-74.10046 0.06122,-85.372283 0.468952,-86.348133 0.652556,-1.56179 2.009119,-2.06027 5.606845,-2.06027 h 2.893172 v -1.77205 c 0,-0.97462 0.20486,-2.26235 0.455245,-2.86161 0.941092,-2.25234 -3.047844,-2.09306 52.418213,-2.09306 h 50.02239 l 2.36589,-1.4746 c 1.30124,-0.81103 2.36589,-1.6107 2.36589,-1.77706 0,-0.16635 0.38141,-0.65593 0.84758,-1.08796 0.6185,-0.57321 1.20927,-0.78551 2.18587,-0.78551 1.48293,0 9.27399,1.86262 15.71671,3.75741 l 4.17558,1.22803 2.39098,-0.75532 c 12.85825,-4.06199 27.90153,-6.93083 44.35295,-8.45837 5.83531,-0.54182 27.60545,-0.53937 33.47347,0.004 9.79843,0.90693 21.146,2.60295 21.96538,3.28297 0.24604,0.20419 2.8492,3.16623 5.78482,6.58231 l 5.33745,6.21104 h 11.33434 c 12.47799,0 13.0847,0.0814 14.0152,1.88078 0.45178,0.87366 0.50175,9.490843 0.50175,86.527623 0,92.57563 0.10455,86.85467 -1.60381,87.76895 -0.44265,0.2369 -18.29935,0.33895 -58.69538,0.33542 l -58.05916,-0.005 -2.72273,1.96248 c -3.14966,2.2702 -6.82864,4.0934 -10.25025,5.07974 -1.85633,0.53512 -3.49455,0.71855 -7.2072,0.80696 -2.64265,0.0629 -5.0931,0.0443 -5.44545,-0.0414 z m 10.93854,-1.25182 c 4.48173,-1.03939 9.62405,-3.60249 12.76516,-6.36259 l 0.96096,-0.84439 58.39294,-3.2e-4 58.39294,-3.2e-4 0.78626,-0.78625 0.78622,-0.78638 V 180.70917 94.834207 l -0.78622,-0.78623 -0.78626,-0.78625 h -11.8384 -11.83843 l -5.64111,-6.55624 c -6.38529,-7.42115 -5.40659,-6.79288 -12.19266,-7.82689 -11.30406,-1.72242 -19.65372,-2.34342 -31.55155,-2.34663 -20.6525,-0.006 -38.1375,2.44514 -58.03876,8.13473 l -5.66639,1.61997 -6.18546,-1.76171 c -3.40201,-0.96894 -7.85034,-2.14567 -9.88519,-2.61497 -4.12198,-0.95066 -5.14275,-0.83906 -5.8147,0.63569 -0.22132,0.48574 -1.43961,1.48202 -2.94563,2.40883 l -2.56822,1.5805 h -50.18811 c -58.232624,0 -51.597372,-0.4983 -51.860697,3.89466 l -0.160161,2.6719 -3.793207,0.16016 c -3.501979,0.14787 -3.840135,0.21822 -4.404404,0.91637 -0.597981,0.73986 -0.611197,2.61216 -0.611197,86.581123 v 85.82491 l 0.786242,0.78624 0.786239,0.78625 h 58.423375 58.42337 l 0.60865,0.67254 c 0.81548,0.9011 5.36328,3.86143 7.25504,4.72258 1.83321,0.83449 5.53288,1.87345 8.11861,2.2799 2.41286,0.37927 7.6474,0.14113 10.27075,-0.46726 z m -9.81742,-4.53668 c -4.63754,-0.72132 -10.05979,-3.27503 -12.98418,-6.11516 -0.5347,-0.51928 -1.28198,-1.10996 -1.66063,-1.3126 -0.51154,-0.27377 -15.3862,-0.36845 -57.88668,-0.36845 H 81.139119 v -82.3383 -82.338303 l 1.841842,0.0961 1.841841,0.0961 0.0807,80.778033 0.08071,80.77804 0.843374,0.6634 0.843375,0.6634 h 64.035929 64.03591 l 4.06903,-1.24479 c 31.24885,-9.55963 64.44688,-11.37764 96.80176,-5.30111 5.65033,1.06118 16.06846,3.63946 21.25287,5.25967 2.26367,0.70743 4.38176,1.28623 4.70685,1.28623 0.32513,0 0.99559,-0.34788 1.48988,-0.77307 l 0.89875,-0.77306 V 186.0729 112.26197 l -1.15956,-1.412 c -0.63772,-0.7766 -3.20105,-3.7604 -5.69625,-6.63067 -2.4952,-2.87027 -4.45137,-5.356763 -4.34707,-5.525533 0.11195,-0.18115 3.19978,-0.30684 7.5381,-0.30684 h 7.34847 v 82.319723 82.31973 l -57.64225,0.0827 -57.64224,0.0827 -1.21661,1.16933 c -3.11242,2.99144 -7.49422,5.2422 -12.01393,6.17109 -2.25289,0.46302 -6.26301,0.60651 -8.26175,0.29563 z m 9.44945,-1.22046 c 3.08629,-0.8321 6.8638,-2.84138 9.44945,-5.02623 l 2.4024,-2.03 57.41742,-0.0827 57.41742,-0.0827 V 180.70652 99.027447 h -6.56657 c -3.61161,0 -6.56657,0.0762 -6.56657,0.16928 0,0.0931 2.3213,2.867883 5.15841,6.166173 2.83714,3.29827 5.28852,6.33299 5.44749,6.7438 0.16974,0.43858 0.25517,31.16176 0.20696,74.42069 l -0.0821,73.67374 -1.0461,0.93467 c -0.58715,0.52463 -1.41133,0.93468 -1.87865,0.93468 -0.45789,0 -3.23039,-0.71748 -6.1611,-1.59439 -37.77361,-11.30252 -77.67551,-11.29409 -115.29121,0.0243 l -5.2179,1.57005 H 150.66051 86.313397 l -0.985536,-0.82927 -0.985539,-0.82928 V 179.71965 99.027407 h -1.281281 -1.281282 v 81.681673 81.68168 h 57.129811 57.12981 l 0.98306,0.72072 c 0.54069,0.3964 1.80545,1.39118 2.81058,2.21064 2.85591,2.32834 5.82454,3.62582 11.19599,4.89335 1.27223,0.30021 7.4104,-0.10175 9.28929,-0.60832 z M 90.108844,256.06452 c 3.2e-4,-0.13213 -0.0036,-37.11239 -0.0089,-82.17836 -0.0053,-45.06596 0.07493,-82.074963 0.178306,-82.242233 0.222997,-0.36081 96.53832,-0.41932 97.0814,-0.059 0.68997,0.45781 3.64933,4.21738 3.64933,4.63612 0,0.2579 -1.44168,0.89933 -3.66884,1.63234 -2.01786,0.66413 -3.96209,1.45224 -4.32053,1.75135 -0.5108,0.426273 -0.79393,1.429653 -1.30952,4.640963 l -0.65783,4.0971 1.82027,3.5034 c 2.07546,3.99456 2.14805,3.55612 -1.01347,6.1212 -1.11324,0.90323 -2.1123,1.87211 -2.22012,2.15307 -0.27377,0.71345 -1.02808,6.65822 -1.30425,10.27892 -0.25518,3.34541 -0.0157,2.93702 -3.6141,6.16311 -1.42573,1.27823 -2.17219,2.23093 -2.50975,3.20321 -1.26928,3.65594 -2.83563,8.92232 -4.09233,13.75924 l -1.38436,5.32833 0.81945,3.55256 0.81945,3.55256 -1.7781,2.65064 c -0.97796,1.45786 -2.66773,3.65966 -3.75505,4.89289 -2.28848,2.59557 -3.00878,3.80356 -2.75145,4.61433 0.10095,0.31806 1.19404,1.92754 2.42908,3.57662 1.23505,1.64907 2.20492,3.20335 2.15528,3.45395 -0.0505,0.25509 -1.71156,1.0691 -3.77394,1.84948 -5.67089,2.14579 -5.75587,2.60057 -1.52152,8.14254 1.62963,2.13289 3.09287,4.06167 3.25165,4.28618 0.17979,0.25423 0.0765,1.19198 -0.27375,2.48601 l -0.56243,2.07778 -3.3203,1.99476 c -5.15213,3.0953 -4.79775,2.59775 -4.68252,6.57433 l 0.0983,3.39357 -3.37046,2.15861 c -2.14672,1.37486 -3.49826,2.46236 -3.72246,2.99521 -0.2741,0.65147 -0.20267,1.62782 0.32279,4.41216 l 0.67479,3.57557 -0.69883,2.58989 c -0.65429,2.42485 -0.86949,2.78195 -3.37699,5.6037 -1.50503,1.69365 -2.67816,3.30125 -2.67816,3.67002 0,1.04073 2.87812,9.04404 3.46938,9.64747 0.465,0.47456 1.57747,0.56951 8.54263,0.72913 12.93524,0.29642 23.68403,1.31105 33.86407,3.19657 2.41703,0.44768 4.54315,0.81396 4.72472,0.81396 0.18157,0 0.33013,0.21622 0.33013,0.48048 0,0.42508 -5.87254,0.48048 -50.93093,0.48048 -28.01201,0 -50.930591,-0.1081 -50.930174,-0.24024 z m 92.571816,-1.37099 c -9.46321,-1.60317 -20.97837,-2.53538 -31.45361,-2.54633 -6.08303,-0.006 -6.3375,-0.0324 -7.12125,-0.72732 -1.13464,-1.0061 -4.14024,-9.5694 -3.83943,-10.93897 0.11644,-0.53016 0.95643,-1.76325 1.86663,-2.7402 3.32572,-3.56961 3.61971,-4.02392 4.20191,-6.49351 0.52396,-2.22254 0.52602,-2.5469 0.0331,-5.2325 -0.28902,-1.5747 -0.52519,-3.4615 -0.52483,-4.1929 6.4e-4,-1.54098 0.47713,-2.02748 4.61571,-4.71376 l 2.53298,-1.64412 -0.0693,-3.12227 c -0.0528,-2.38147 0.048,-3.28965 0.42483,-3.82768 0.27174,-0.38796 2.04459,-1.65083 3.93967,-2.80637 3.51369,-2.14251 4.026,-2.70365 4.39897,-4.81825 0.18435,-1.04522 -0.01,-1.38609 -2.86326,-5.03483 -3.21061,-4.10501 -3.70927,-5.22315 -3.04479,-6.82735 0.483,-1.16604 0.82635,-1.36704 4.96069,-2.90393 2.26005,-0.84015 3.0387,-1.25651 2.64448,-1.41405 -0.30729,-0.12282 -0.47692,-0.35566 -0.37694,-0.51742 0.1,-0.16177 -0.52841,-1.19781 -1.39642,-2.30233 -1.94217,-2.47136 -2.31256,-3.14779 -2.31256,-4.22331 0,-1.19373 0.44236,-1.90589 2.96504,-4.77348 2.26727,-2.57726 5.04297,-6.60549 5.04297,-7.31861 0,-0.21661 -0.31698,-1.79939 -0.7044,-3.51729 l -0.7044,-3.12346 0.745,-3.12607 c 0.96431,-4.04627 2.63982,-9.91925 4.06577,-14.25124 l 1.1315,-3.43746 2.72984,-2.55406 2.72983,-2.55406 0.26744,-3.29776 c 0.41068,-5.06414 0.99893,-9.31147 1.39414,-10.06606 0.19651,-0.37521 1.32525,-1.50493 2.50832,-2.51048 l 2.15103,-1.82828 -1.59047,-3.16938 c -0.87476,-1.74316 -1.59047,-3.60598 -1.59047,-4.13961 0,-1.45209 0.92711,-7.08021 1.33522,-8.105563 0.42797,-1.07525 1.08093,-1.4264 5.15167,-2.77045 l 3.12352,-1.0313 -1.4891,-1.89537 -1.48909,-1.89538 H 138.90969 90.748728 v 81.681673 81.68168 l 48.608612,-0.0376 48.60861,-0.0376 z m 26.42643,-0.0234 c -3.07826,-0.98547 -11.78407,-3.14153 -16.75968,-4.15067 -12.61821,-2.55918 -23.22503,-3.75303 -36.39489,-4.09642 l -7.9894,-0.20832 -0.73933,-1.91031 c -0.40662,-1.05067 -0.73932,-2.12813 -0.73932,-2.39436 0,-0.26623 0.95373,-1.44515 2.1194,-2.61982 l 2.1194,-2.13577 1.07189,-3.91235 c 1.07156,-3.91116 1.07175,-3.91311 0.60338,-6.36076 -0.76768,-4.01181 -1.08493,-3.50377 4.20205,-6.72917 2.16889,-1.32316 2.46684,-2.06316 2.20112,-5.46683 -0.24809,-3.17797 -0.39444,-2.95137 3.29439,-5.10129 3.67386,-2.1412 3.81505,-2.3216 5.04977,-6.45242 0.60559,-2.02602 1.10541,-3.85769 1.11073,-4.07037 0.005,-0.21267 -1.07143,-1.82183 -2.39275,-3.5759 -1.32132,-1.75407 -2.40241,-3.40754 -2.40241,-3.67438 0,-0.47031 0.46858,-0.68463 5.38135,-2.46142 3.86378,-1.3974 3.87278,-2.43979 0.0641,-7.42789 -1.58559,-2.07659 -2.88288,-3.94448 -2.88288,-4.15087 0,-0.20639 0.70372,-1.18434 1.56382,-2.17322 2.33002,-2.67888 5.80354,-8.13062 5.80354,-9.10873 0,-0.46198 -0.36026,-2.36468 -0.80059,-4.22822 l -0.80059,-3.38825 0.66121,-2.61512 c 0.84356,-3.33629 1.96652,-7.14546 3.39441,-11.5141 1.05956,-3.24174 1.23977,-3.55605 2.93853,-5.12512 4.4976,-4.15425 4.10756,-3.50463 4.37073,-7.27947 0.47871,-6.86621 0.95982,-9.84707 1.69011,-10.47164 0.37117,-0.31742 1.61094,-1.35043 2.75505,-2.29557 1.14411,-0.94514 2.25977,-2.15194 2.47924,-2.68179 0.37395,-0.9028 0.2658,-1.23069 -1.72074,-5.21668 l -2.11978,-4.25332 0.3484,-2.1025 0.34839,-2.1025 4.95939,-1.65291 c 2.72766,-0.9091 5.22972,-1.923263 5.56014,-2.253683 1.31554,-1.31554 0.83598,-2.41595 -3.19334,-7.32749 -1.08398,-1.32132 -1.97105,-2.51417 -1.97127,-2.65078 -2.1e-4,-0.13661 0.90051,-0.82191 2.00162,-1.52289 1.60201,-1.01987 2.19399,-1.23521 2.96296,-1.07781 1.8346,0.37552 10.58157,2.71944 12.57134,3.36874 l 2.00078,0.65288 0.0813,81.976313 c 0.0447,45.08698 0.0332,82.12046 -0.0255,82.29662 -0.14083,0.42243 -0.49239,0.37767 -2.77611,-0.35344 z m 2.08083,-81.79542 -2.3e-4,-81.508163 -2.16142,-0.64128 c -2.51271,-0.74551 -10.02623,-2.73989 -11.49676,-3.05169 -0.80031,-0.16969 -1.34214,-0.007 -2.63962,0.79104 l -1.63261,1.00455 2.75115,3.34494 c 3.24839,3.94953 3.62989,5.10557 2.23275,6.76597 -0.67966,0.807733 -1.63207,1.262903 -4.91842,2.350533 -5.72881,1.89598 -5.73266,1.89841 -5.99043,3.7726 -0.20221,1.47021 -0.096,1.80443 1.73062,5.44839 2.08856,4.1664 2.39825,5.73087 1.37836,6.96293 -0.30439,0.36771 -1.63452,1.58283 -2.95584,2.70026 -2.79575,2.36434 -2.6661,1.98259 -3.33693,9.82511 -0.27089,3.16693 -0.6118,5.42267 -0.87565,5.79402 -0.23764,0.33445 -1.59994,1.65003 -3.02735,2.92351 l -2.59529,2.31542 -1.32548,4.22289 c -0.72902,2.32259 -1.84979,6.15792 -2.49062,8.52295 l -1.16514,4.30007 0.87257,3.80324 c 0.47991,2.09179 0.78459,4.15376 0.67707,4.58216 -0.23808,0.9486 -4.52512,7.486 -6.12346,9.33779 -1.1297,1.30885 -1.1433,1.35644 -0.61717,2.15941 0.29589,0.4516 0.64234,0.75658 0.76988,0.67776 0.12754,-0.0788 0.2319,0.0389 0.2319,0.2617 0,0.22276 0.87904,1.55751 1.95344,2.96613 2.2629,2.96684 2.54495,3.76456 1.88744,5.3382 -0.55618,1.33113 -0.85877,1.51707 -4.60258,2.82828 -1.54837,0.54229 -2.93309,1.09772 -3.07717,1.2343 -0.14408,0.13658 0.77272,1.60072 2.03734,3.25364 2.27864,2.97831 2.29774,3.01969 2.12687,4.60691 -0.0948,0.88088 -0.65127,3.04304 -1.23654,4.8048 l -1.06411,3.20321 -1.97219,1.28128 c -1.08471,0.7047 -2.63426,1.67413 -3.44345,2.15427 l -1.47125,0.873 v 3.16789 c 0,3.86452 -0.12995,4.07215 -4.12751,6.59452 l -2.84335,1.7941 0.44201,2.31772 c 0.61081,3.20285 0.57679,3.68485 -0.54881,7.77547 -0.96187,3.49557 -1.05454,3.67252 -3.09318,5.9062 l -2.10161,2.30268 0.53213,1.6881 0.53212,1.68811 6.96546,0.22139 c 18.61332,0.59161 35.14018,3.02762 51.30773,7.56261 2.39053,0.67054 4.38223,1.23269 4.42599,1.24922 0.0438,0.0165 0.0795,-36.64864 0.0793,-81.47814 z m 5.99053,82.26556 c -0.12294,-0.12293 -0.22351,-37.16701 -0.22351,-82.32017 V 90.723397 l 2.64264,-0.81725 c 4.47818,-1.38491 15.07965,-3.96309 20.36136,-4.9517 22.09176,-4.13503 45.21753,-4.6302 67.48649,-1.44502 1.93793,0.27719 3.84784,0.63581 4.24424,0.79695 l 0.72072,0.29297 v 11.71312 11.713113 l 0.73429,0.73428 c 0.62749,0.6275 1.19819,0.76687 3.92392,0.95831 4.38592,0.30804 8.96618,1.0143 12.95941,1.99829 3.70191,0.91221 8.35527,2.58452 8.72424,3.13529 0.12967,0.19355 0.20174,31.84741 0.16016,70.3419 -0.0753,69.7673 -0.0776,69.98986 -0.71623,69.94695 -0.35236,-0.0237 -3.29379,-0.78087 -6.53656,-1.68266 -10.21664,-2.84123 -21.5276,-4.91026 -34.6246,-6.33366 -6.711,-0.72936 -29.69357,-0.83385 -36.51652,-0.16602 -13.50644,1.32199 -25.61357,3.50854 -37.55156,6.78182 -2.56981,0.70462 -4.87322,1.35819 -5.11868,1.45238 -0.24547,0.0942 -0.54688,0.0707 -0.66981,-0.0522 z m 4.90161,-2.05077 c 12.78516,-3.54139 25.10314,-5.71528 40.2002,-7.09461 5.82798,-0.53246 25.1359,-0.53195 31.23123,9.7e-4 14.18502,1.23987 28.02104,3.67482 40.12012,7.0606 l 4.40441,1.23252 v -69.57298 -69.57299 l -3.44345,-1.15954 c -1.89389,-0.63775 -4.36824,-1.39096 -5.49855,-1.67379 -2.97921,-0.74548 -10.11018,-1.74727 -12.44967,-1.74899 -1.10676,-9.6e-4 -2.5026,-0.20633 -3.10185,-0.45672 -2.05584,-0.85913 -2.09307,-1.1043 -2.09307,-13.783243 0,-6.263 -0.10811,-11.38812 -0.24024,-11.38916 -0.13213,-9.7e-4 -1.68168,-0.21962 -3.44344,-0.48573 -16.10732,-2.43297 -34.87627,-2.83518 -51.09109,-1.09485 -11.95816,1.28346 -26.28474,4.14511 -36.75378,7.34135 l -2.31934,0.70811 -9.6e-4,81.524723 c -9.7e-4,77.39973 0.0273,81.51388 0.55758,81.31034 0.3072,-0.11791 2.07207,-0.63362 3.92192,-1.14601 z M 329.54753,106.51341 c -0.88088,-0.24344 -3.83584,-0.74972 -6.56657,-1.12508 -2.73073,-0.37535 -5.14514,-0.73034 -5.36536,-0.78886 -0.30537,-0.0812 -0.4004,-1.8246 -0.4004,-7.345943 0,-6.96863 0.0231,-7.23571 0.61691,-7.13718 0.51641,0.0857 6.41837,6.70536 12.89157,14.459273 2.07587,2.48659 1.89399,2.78624 -1.17615,1.93779 z m -3.59932,-6.2402 c -2.77713,-3.190753 -5.62591,-6.505123 -6.33061,-7.365283 l -1.28128,-1.56392 -0.0874,5.99405 c -0.0481,3.296733 -0.0166,6.178673 0.07,6.404323 0.0876,0.22833 0.66874,0.41026 1.31042,0.41026 2.20172,0 9.13226,1.16286 11.28382,1.89328 0.0464,0.0158 -2.18782,-2.58196 -4.96497,-5.77271 z"
       id="path951-8"
       sodipodiNodetypes="csscssssscssscssssscsscsscssssscsssccsscccccccccccsscscsssscsscssscccccsssscssscccccccccccssssscccsssscccccsscccscccccssssscsscscccccccccccccssscccssssssscssssssscccssssssssscsscssscsssssssssccscssssscsccssscssssssssscsscccssscsssscccccccccsssscssscsssssscsssssssscsssssssscccssssssscssssccssccsssscssssscsscssssssssssssscsscsscssscccsssscsscsssscccssssssssssssssscscccssccscsssccsssssssssssscssssss" />
  </g>
</svg>
